<svg width="48" height="40" viewBox="0 0 48 40" fill="none" xmlns="http://www.w3.org/2000/svg">
<g clip-path="url(#clip0_1_955)">
<path d="M2 1.66663H10L15.36 23.9833C15.5429 24.7506 16.0438 25.4399 16.7751 25.9305C17.5064 26.421 18.4214 26.6816 19.36 26.6666H38.8C39.7386 26.6816 40.6536 26.421 41.3849 25.9305C42.1162 25.4399 42.6171 24.7506 42.8 23.9833L46 9.99996H12M20 35C20 35.9204 19.1046 36.6666 18 36.6666C16.8954 36.6666 16 35.9204 16 35C16 34.0795 16.8954 33.3333 18 33.3333C19.1046 33.3333 20 34.0795 20 35ZM42 35C42 35.9204 41.1046 36.6666 40 36.6666C38.8954 36.6666 38 35.9204 38 35C38 34.0795 38.8954 33.3333 40 33.3333C41.1046 33.3333 42 34.0795 42 35Z" stroke="#1E1E1E" stroke-width="4" stroke-linecap="round" stroke-linejoin="round"/>
</g>
<defs>
<clipPath id="clip0_1_955">
<rect width="48" height="40" fill="white"/>
</clipPath>
</defs>
</svg>
